<svg width="20" height="20" viewBox="0 0 20 20" fill="none" xmlns="http://www.w3.org/2000/svg">
<g id="search-m">
<path id="vector" fill-rule="evenodd" clip-rule="evenodd" d="M9.1665 1.66699C5.02437 1.66699 1.6665 5.02486 1.6665 9.16699C1.6665 13.3091 5.02437 16.667 9.1665 16.667C10.9373 16.667 12.5649 16.0533 13.8479 15.0269L17.4998 18.6788L18.6784 17.5003L15.0264 13.8484C16.0528 12.5653 16.6665 10.9378 16.6665 9.16699C16.6665 5.02486 13.3086 1.66699 9.1665 1.66699ZM3.33317 9.16699C3.33317 5.94533 5.94484 3.33366 9.1665 3.33366C12.3882 3.33366 14.9998 5.94533 14.9998 9.16699C14.9998 12.3887 12.3882 15.0003 9.1665 15.0003C5.94484 15.0003 3.33317 12.3887 3.33317 9.16699Z" fill="black"/>
</g>
</svg>
